{"title":"Oldboy.2003.720p.BluRay.x264.DTS-WiKi","uid":6827253,"size":5863757899,"categoryP":"video","categoryS":"hd___movies","magnet":"?xt=urn:btih:8865dfbce683efbc0aa0db15d323a12381c0451a&amp;dn=Oldboy.2003.720p.BluRay.x264.DTS-WiKi&amp;tr=udp%3A%2F%2Ftracker.openbittorrent.com%3A80&amp;tr=udp%3A%2F%2Fopen.demonii.com%3A1337&amp;tr=udp%3A%2F%2Ftracker.coppersurfer.tk%3A6969&amp;tr=udp%3A%2F%2Fexodus.desync.com%3A6969","seeders":5,"leechers":1,"uploader":"mfccorrea","files":5,"time":1321623175,"description":"An average man is kidnapped and imprisoned in a shabby cell for 15 years without explanation. He then is released, equipped with money, a cellphone and expensive clothes. As he strives to explain his imprisonment and get his revenge, he soon finds out that not only his kidnapper has still plans for him, but that those plans will serve as the even worse finale to 15 years of imprisonment.\n\n   General\n      Complete name : Oldboy.2003.720p.BluRay.x264.DTS-WiKi.mkv\n      Format : Matroska\n      File size : 5.46 GiB\n      Duration : 1h 59mn\n      Overall bit rate : 6 519 Kbps\n      Encoded date : UTC 2011-05-05 16:09:47\n      Writing application : mkvmerge v2.2.0 ('Turn It On Again') built on Mar  4 2008 12:58:26\n      Writing library : libebml v0.7.7 + libmatroska v0.8.1\n   Video #1\n      ID : 1\n      Format : AVC\n      Format/Info : Advanced Video Codec\n      Format profile : &lt;a class=&quot;__cf_email__&quot; href=&quot;/cdn-cgi/l/email-protection&quot; data-cfemail=&quot;ffb7969897bfb3cbd1ce&quot;&gt;[email&amp;#160;protected]&lt;/a&gt;&lt;script cf-hash='f9e31' type=&quot;text/javascript&quot;&gt;\n/* &lt;![CDATA[ */!function(){try{var t=&quot;currentScript&quot;in document?document.currentScript:function(){for(var t=document.getElementsByTagName(&quot;script&quot;),e=t.length;e--;)if(t[e].getAttribute(&quot;cf-hash&quot;))return t[e]}();if(t&amp;&amp;t.previousSibling){var e,r,n,i,c=t.previousSibling,a=c.getAttribute(&quot;data-cfemail&quot;);if(a){for(e=&quot;&quot;,r=parseInt(a.substr(0,2),16),n=2;a.length-n;n+=2)i=parseInt(a.substr(n,2),16)^r,e+=String.fromCharCode(i);e=document.createTextNode(e),c.parentNode.replaceChild(e,c)}}}catch(u){}}();/* ]]&gt; */&lt;/script&gt;\n      Format settings, CABAC : Yes\n      Format settings, ReFrames : 9 frames\n      Muxing mode : Container profile=&lt;a class=&quot;__cf_email__&quot; href=&quot;/cdn-cgi/l/email-protection&quot; data-cfemail=&quot;b6e3d8ddd8d9c1d8f6829887&quot;&gt;[email&amp;#160;protected]&lt;/a&gt;&lt;script cf-hash='f9e31' type=&quot;text/javascript&quot;&gt;\n/* &lt;![CDATA[ */!function(){try{var t=&quot;currentScript&quot;in document?document.currentScript:function(){for(var t=document.getElementsByTagName(&quot;script&quot;),e=t.length;e--;)if(t[e].getAttribute(&quot;cf-hash&quot;))return t[e]}();if(t&amp;&amp;t.previousSibling){var e,r,n,i,c=t.previousSibling,a=c.getAttribute(&quot;data-cfemail&quot;);if(a){for(e=&quot;&quot;,r=parseInt(a.substr(0,2),16),n=2;a.length-n;n+=2)i=parseInt(a.substr(n,2),16)^r,e+=String.fromCharCode(i);e=document.createTextNode(e),c.parentNode.replaceChild(e,c)}}}catch(u){}}();/* ]]&gt; */&lt;/script&gt;\n      Codec ID : V_MPEG4/ISO/AVC\n      Duration : 1h 59mn\n      Bit rate : 5 634 Kbps\n      Nominal bit rate : 5 746 Kbps\n      Width : 1 280 pixels\n      Height : 552 pixels\n      Display aspect ratio : 2.35:1\n      Frame rate : 23.976 fps\n      Resolution : 24 bits\n      Colorimetry : 4:2:0\n      Scan type : Progressive\n      Bits/(Pixel*Frame) : 0.333\n      Stream size : 4.72 GiB (86%)\n      Writing library : x264 core 98 r1649 c54c47d     \n   Audio #2\n      ID : 2\n      Format : DTS\n      Format/Info : Digital Theater Systems\n      Format profile : ES\n      Codec ID : A_DTS\n      Duration : 1h 59mn\n      Bit rate mode : Constant\n      Bit rate : 755 Kbps\n      Channel(s) : 6 channels\n      Channel positions : Front: L C R, Surround: L R, LFE\n      Sampling rate : 48.0 KHz\n      Resolution : 16 bits\n      Stream size : 647 MiB (12%)\n      Language : Korean\n &lt;a href=&quot;\nhttp://www.imdb.com/title/tt0364569/&quot; rel=&quot;nofollow&quot; target=&quot;_NEW&quot;&gt;\nhttp://www.imdb.com/title/tt0364569/&lt;/a&gt;\n\nLanguage: Korean\nSubtitles: English, Chinese, Portuguese","torrent":{"xt":"urn:btih:8865dfbce683efbc0aa0db15d323a12381c0451a","amp;dn":"Oldboy.2003.720p.BluRay.x264.DTS-WiKi","amp;tr":["udp%3A%2F%2Ftracker.openbittorrent.com%3A80","udp%3A%2F%2Fopen.demonii.com%3A1337","udp%3A%2F%2Ftracker.coppersurfer.tk%3A6969","udp%3A%2F%2Fexodus.desync.com%3A6969"],"infoHash":"8865dfbce683efbc0aa0db15d323a12381c0451a","infoHashBuffer":{"type":"Buffer","data":[136,101,223,188,230,131,239,188,10,160,219,21,211,35,161,35,129,192,69,26]},"announce":[],"urlList":[]}}